<svg xmlns="http://www.w3.org/2000/svg" width="208.87" height="1009.199" viewBox="0 0 208.87 1009.199">
  <g id="Group_46" data-name="Group 46" transform="translate(-1716.584 -765.801)">
    <path id="Path_11" data-name="Path 11" d="M0,0H155.913s23.513,23.881,23.513,99.348c0,74.032,6.54,60.15,0,108.277s-25.265,57.748-61.354,119.105-39.7,53.768,0,131.367S0,763.449,0,763.449V0Z" transform="translate(1919.804 1775) rotate(180)" fill="#4b3f72"/>
    <path id="Path_12" data-name="Path 12" d="M0,259.108C47,6.808,187.983-198.75,187.983-198.75s-5.231,232.656-5.231,311.965c0,77.8,1.726,68.911,0,122.1s-28.59,59.278-64.68,123.76-29.589,87.805,10.112,169.356-71.14,282.014-71.14,282.014H0S-47,511.408,0,259.108Z" transform="translate(1737.471 964.551)" fill="#40798c"/>
  </g>
</svg>
