<svg xmlns="http://www.w3.org/2000/svg" viewBox="0 0 202.04 1202.47"><defs><style>.a{fill:#40798c;}.b{fill:#4b3f72;}</style></defs><path class="a" d="M19,999.33H78c28.28-61.94,51.56-116.48,51.56-116.48,52.18-131,13.43-174.16,13.43-174.16-42.93-80.37-23.12-122-23.12-122,8.59-35,68.48-111.64,68.48-111.64A76.59,76.59,0,0,0,202,436.32V0S-73.5,361.24,19,999.33Z"/><path class="a" d="M19,999.33s6.17,36.36,18.76,85.21C51,1057.6,65,1027.69,78,999.33Z"/><path class="a" d="M75.79,1202.47H202v-43.29H59.76C64.66,1173.66,70,1188.24,75.79,1202.47Z"/><path class="b" d="M119.82,586.71s-19.81,41.61,23.12,122c0,0,38.75,43.15-13.43,174.16,0,0-23.28,54.54-51.56,116.48H202v-563a76.59,76.59,0,0,1-13.74,38.75S128.41,551.7,119.82,586.71Z"/><path class="b" d="M37.74,1084.54c5.91,23,13.25,48.66,22,74.64H202V999.33H78C65,1027.69,51,1057.6,37.74,1084.54Z"/></svg>